<?xml version="1.0" standalone="no"?>
<svg xmlns="http://www.w3.org/2000/svg" width="500" height="500" viewBox="0 0 500 500">
<g transform="translate(0,500) scale(0.1,-0.1)">
<path d="M795 3108 c-5 -12 -2 -486 4 -718 1 -36 -1 -161 -5 -278 -4 -136 -3
-217 3 -223 14 -14 604 -15 630 -1 11 6 30 13 44 15 13 2 51 16 84 32 33 15
63 28 66 27 13 -2 167 167 191 210 53 96 70 164 75 309 l5 136 -32 23 c-27 20
-31 27 -26 54 12 66 -62 204 -144 271 -21 17 -35 35 -32 40 3 6 2 7 -3 3 -4
-4 -20 1 -34 11 -35 25 -112 58 -180 77 -81 23 -638 33 -646 12z m1005 -408
c0 -70 -3 -90 -14 -90 -17 0 -26 31 -26 97 0 61 7 83 26 83 11 0 14 -20 14
-90z m-572 -62 c-2 -57 -6 -73 -18 -73 -11 0 -16 15 -18 59 -4 68 1 86 23 86
13 0 15 -12 13 -72z m497 -83 c0 -39 -4 -50 -17 -53 -15 -3 -18 5 -18 53 0 48
3 56 18 53 13 -3 17 -14 17 -53z m-560 26 c8 -26 -5 -53 -24 -49 -29 6 -27 68
3 68 8 0 17 -8 21 -19z m-77 -88 c-2 -53 -6 -68 -18 -68 -12 0 -16 15 -18 68
-3 62 -1 67 18 67 19 0 21 -5 18 -67z m187 11 c0 -38 -4 -49 -17 -52 -15 -3
-18 4 -18 46 0 27 3 52 7 56 16 16 28 -4 28 -50z m77 -20 c4 -66 -5 -96 -27
-88 -11 5 -15 22 -15 68 0 64 4 76 26 76 8 0 13 -20 16 -56z m301 -6 c5 -67
-2 -84 -27 -75 -12 5 -16 20 -16 56 0 58 7 81 25 81 8 0 14 -21 18 -62z m-713
-36 c0 -53 -5 -63 -26 -55 -9 3 -14 21 -14 54 0 42 3 49 20 49 17 0 20 -7 20
-48z m485 -48 c0 -57 -3 -69 -17 -72 -16 -3 -18 5 -18 66 0 38 3 72 7 76 18
18 28 -6 28 -70z m-413 49 c7 -30 -4 -54 -21 -51 -29 6 -27 68 3 68 8 0 16 -8
18 -17z m488 -69 c0 -47 -3 -55 -17 -52 -13 2 -19 15 -21 42 -4 47 3 66 23 66
12 0 15 -12 15 -56z m80 -14 c0 -63 -2 -70 -20 -70 -18 0 -20 7 -20 70 0 63 2
70 20 70 18 0 20 -7 20 -70z m-720 -36 c0 -66 -2 -75 -17 -72 -14 3 -19 15
-21 62 -4 68 1 86 23 86 12 0 15 -14 15 -76z M2060 2690 l0 -160 85 0 c98 0
130 12 171 65 24 31 26 42 22 99 -2 42 -10 71 -21 84 -9 10 -15 21 -12 24 3 3
-17 15 -44 27 -36 15 -70 21 -125 21 l-76 0 0 -160z m161 65 c41 -21 53 -57
35 -100 -12 -27 -22 -35 -50 -41 -59 -11 -64 -4 -64 80 0 74 1 76 25 76 13 0
37 -7 54 -15z M2630 2692 l0 -159 73 -6 c81 -6 143 13 132 41 -4 12 -3 12 9 3
12 -10 15 -4 21 38 4 28 4 64 0 80 -9 41 -59 71 -118 71 l-46 0 -3 43 c-3 39
-5 42 -35 45 l-33 3 0 -159z m150 -23 c27 -49 -11 -85 -60 -59 -18 9 -20 46
-4 72 10 16 53 8 64 -13z M3374 2837 c-2 -7 -3 -78 -2 -157 l3 -145 37 -3 37
-3 3 78 c3 68 6 78 22 81 31 6 46 -26 46 -95 l0 -63 36 0 36 0 -4 98 c-4 116
-12 129 -84 134 l-49 3 -3 43 c-3 41 -4 42 -38 42 -19 0 -37 -6 -40 -13z
M2393 2726 c-96 -102 34 -259 155 -186 27 17 31 23 22 39 -5 11 -15 22 -22 24
-7 3 -1 6 14 6 50 2 47 81 -5 129 -17 15 -36 20 -79 20 -50 0 -59 -3 -85 -32z
m97 -37 c0 -5 4 -8 9 -4 5 3 12 1 16 -5 4 -6 -10 -10 -37 -10 -40 1 -42 2 -24
15 23 18 36 19 36 4z m30 -83 c0 -8 -51 -13 -56 -5 -3 5 9 9 25 9 17 0 31 -2
31 -4z M2908 2742 c-23 -24 -23 -83 0 -103 9 -8 33 -20 52 -26 l35 -12 -35 3
c-44 3 -82 -13 -78 -33 2 -9 19 -24 38 -34 74 -38 170 6 150 70 -13 44 -29 79
-29 66 -1 -7 -8 -10 -16 -7 -14 6 -13 8 2 19 10 7 21 11 25 9 4 -3 5 3 1 12
-5 13 -3 15 8 9 11 -7 10 -4 -2 15 -13 20 -25 25 -75 27 -46 2 -63 -1 -76 -15z
m87 -60 c-3 -3 -11 0 -18 7 -9 10 -8 11 6 5 10 -3 15 -9 12 -12z M3099 2753
c-1 -5 -2 -78 -3 -163 l-1 -155 -42 4 -43 3 0 -47 0 -46 -32 5 c-101 17 -168
-82 -123 -179 26 -53 48 -60 177 -56 l57 1 3 158 3 157 38 3 c37 3 37 4 37 47
l0 44 48 -6 c46 -5 51 -3 86 32 25 25 36 44 33 56 -3 11 -2 21 3 24 12 8 -10
81 -31 104 -17 18 -31 21 -114 21 -52 0 -96 -3 -96 -7z m148 -78 c-1 -5 3 -9
8 -8 13 2 14 -36 2 -54 -11 -18 -52 -16 -71 3 -25 25 6 74 45 71 10 -1 17 -6
16 -12z m-249 -407 c7 -7 12 -22 12 -34 0 -51 -67 -60 -85 -11 -8 24 -6 31 10
43 23 17 47 18 63 2z M3649 2728 c-31 -35 -37 -63 -26 -133 3 -14 28 -40 57
-58 37 -23 114 -17 142 11 17 17 20 24 10 34 -16 16 -15 28 3 28 11 0 15 12
15 46 0 37 -5 51 -29 75 -26 25 -37 29 -86 29 -50 0 -59 -3 -86 -32z m114 -37
c5 -1 5 -5 2 -11 -7 -12 -55 -13 -55 -2 0 14 10 20 28 17 9 -2 21 -4 25 -4z
m15 -92 c-22 -5 -47 -5 -60 1 -18 7 -9 9 37 8 56 0 58 -1 23 -9z M3880 2645
l0 -115 40 0 40 0 0 65 c0 61 2 66 26 75 40 16 44 13 44 -34 0 -46 16 -72 60
-99 34 -21 113 -17 139 7 27 25 26 32 -6 51 l-28 15 30 -2 c25 -3 31 1 33 21
12 79 -34 131 -116 131 -46 0 -102 -23 -103 -43 0 -6 -5 0 -11 16 -9 26 -12
27 -79 27 l-69 0 0 -115z m284 49 c26 -10 18 -24 -13 -24 -30 0 -46 12 -34 24
8 8 27 8 47 0z m15 -94 c-9 -5 -28 -6 -45 0 -27 8 -26 8 16 9 32 0 40 -2 29
-9z M2134 2418 c-5 -13 -9 -25 -9 -28 -1 -3 -5 -12 -8 -20 -15 -34 -77 -226
-77 -237 0 -8 14 -13 39 -13 30 0 42 5 55 25 14 21 24 25 61 25 39 0 47 -3 55
-25 8 -21 16 -25 50 -25 22 0 40 4 40 10 0 5 -22 76 -50 157 -27 81 -50 149
-50 150 0 2 -22 3 -49 3 -43 0 -51 -3 -57 -22z m68 -125 c6 -28 -2 -53 -18
-53 -15 0 -17 12 -8 48 8 26 20 29 26 5z M2420 2348 c-55 -15 -75 -44 -77
-109 -1 -52 1 -59 31 -88 44 -42 107 -47 159 -11 27 18 33 28 25 37 -8 10 -6
13 6 13 9 0 16 -6 16 -14 0 -19 50 -54 81 -57 13 -1 52 -1 87 -1 l62 2 0 115
0 115 -65 1 c-36 1 -71 2 -77 3 -26 4 -67 -16 -73 -35 -6 -18 -35 -27 -35 -11
0 5 -17 18 -38 30 -31 17 -41 19 -52 9 -10 -9 -11 -9 -6 1 8 14 4 14 -44 0z
m147 -104 l-1 -46 -33 5 c-19 3 -45 1 -59 -5 -34 -16 -59 9 -50 47 8 32 30 41
61 25 20 -11 28 -10 47 3 34 23 36 21 35 -29z m154 18 c28 -32 9 -71 -34 -72
-35 0 -55 44 -34 78 12 18 50 15 68 -6z M3181 2344 c-11 -8 -21 -12 -21 -7 0
4 -9 -5 -20 -22 -26 -39 -28 -128 -2 -154 60 -64 200 -58 201 7 0 10 3 29 7
44 9 40 -4 98 -22 98 -8 0 -13 4 -9 9 17 28 -99 49 -134 25z m80 -64 c5 0 9
-4 9 -10 0 -5 -16 -10 -36 -10 -32 0 -35 2 -24 15 7 9 20 13 27 10 8 -3 19 -5
24 -5z m14 -90 c-3 -5 -17 -10 -30 -10 -13 0 -27 5 -30 10 -4 6 8 10 30 10 22
0 34 -4 30 -10z m55 0 c0 -13 -11 -13 -30 0 -12 8 -11 10 8 10 12 0 22 -4 22
-10z M3476 2352 c-4 -3 -27 -5 -51 -3 l-45 2 0 -116 0 -116 38 3 37 3 3 73 c2
55 7 74 18 79 24 9 34 -16 34 -89 l0 -68 35 0 35 0 0 58 c0 82 7 102 35 100
13 -1 23 -5 23 -8 0 -3 0 -38 1 -77 l1 -73 41 0 40 0 -2 89 c-1 75 -5 93 -24
117 -22 28 -34 30 -120 25 -16 -1 -44 0 -62 3 -17 2 -34 2 -37 -2z M3730 2333
c0 -15 2 -16 10 -3 5 8 10 10 10 5 0 -6 -4 -15 -9 -20 -5 -6 6 -42 29 -91 38
-82 39 -114 5 -114 -11 0 -15 -12 -15 -41 0 -41 0 -41 33 -35 60 12 108 86
141 218 3 9 9 26 15 37 6 11 11 29 11 40 0 17 -6 21 -35 21 -29 0 -37 -5 -46
-27 -6 -16 -16 -39 -21 -53 l-11 -25 -13 35 c-8 19 -17 43 -20 53 -5 12 -17
17 -45 17 -31 0 -39 -4 -39 -17z" fill="#052073"/>
<path d="M1836 2878 c-13 -63 -15 -107 -6 -113 5 -3 10 -30 10 -59 0 -58 6
-71 27 -55 14 13 18 69 4 69 -5 0 -12 7 -15 16 -3 8 -2 12 4 9 21 -13 37 66
24 128 -7 34 -41 38 -48 5z M1764 2757 c-8 -21 10 -137 21 -140 6 -1 11 31 13
76 2 65 0 77 -13 77 -9 0 -18 -6 -21 -13z M1194 2675 c-8 -32 7 -110 21 -107
15 3 13 124 -2 129 -7 3 -15 -7 -19 -22z M1131 2578 c-11 -29 -4 -48 15 -41
16 6 19 63 4 63 -6 0 -14 -10 -19 -22z M1690 2561 c0 -37 14 -61 27 -47 3 3 6
22 7 43 1 28 -3 38 -16 41 -15 3 -18 -4 -18 -37z M1061 2541 c-16 -29 -14 -98
3 -104 21 -8 26 2 26 59 0 57 -13 76 -29 45z M1247 2534 c-11 -12 -8 -72 4
-80 16 -10 30 16 27 50 -3 29 -18 43 -31 30z M1317 2523 c-10 -9 -8 -96 2
-112 15 -24 31 -1 31 44 0 62 -13 89 -33 68z M1615 2486 c-9 -55 -2 -78 20
-70 12 5 15 18 13 57 -4 65 -24 73 -33 13z M907 2483 c-9 -8 -9 -78 0 -86 11
-11 33 14 33 38 0 43 -16 66 -33 48z M1394 2446 c-3 -7 -4 -35 -2 -62 2 -36 7
-49 18 -49 17 0 26 61 16 102 -7 25 -24 31 -32 9z M752 2428 c-15 -15 -16 -94
-2 -103 6 -3 19 -3 30 0 33 11 24 115 -10 115 -3 0 -11 -5 -18 -12z M980 2420
c0 -23 25 -27 33 -6 7 16 -1 26 -20 26 -7 0 -13 -9 -13 -20z M1472 2418 c-7
-7 -12 -29 -12 -51 0 -31 3 -38 18 -35 12 2 18 15 20 42 4 43 -8 62 -26 44z
M1547 2414 c-4 -4 -7 -34 -7 -66 0 -45 3 -58 15 -58 18 0 27 34 23 85 -3 37
-16 53 -31 39z M827 2384 c-10 -10 -9 -102 1 -108 20 -12 33 13 30 59 -3 45
-15 64 -31 49z M674 2276 c-11 -29 0 -61 21 -61 16 0 21 8 23 38 3 32 0 37
-18 37 -11 0 -23 -6 -26 -14z" fill="#3FE1BC"/>
</g>
</svg>